<svg width="3071" height="1989" xmlns="http://www.w3.org/2000/svg" xmlns:xlink="http://www.w3.org/1999/xlink" overflow="hidden"><defs><clipPath id="clip0"><rect x="2763" y="458" width="3071" height="1989"/></clipPath><clipPath id="clip1"><rect x="2766" y="462" width="3064" height="1980"/></clipPath><clipPath id="clip2"><rect x="2766" y="462" width="3064" height="1980"/></clipPath><clipPath id="clip3"><rect x="2766" y="462" width="3064" height="1980"/></clipPath><clipPath id="clip4"><rect x="2766" y="462" width="3064" height="1980"/></clipPath><clipPath id="clip5"><rect x="2993" y="513" width="2769" height="1729"/></clipPath><clipPath id="clip6"><rect x="2766" y="462" width="3064" height="1980"/></clipPath><clipPath id="clip7"><rect x="2766" y="462" width="3064" height="1980"/></clipPath><clipPath id="clip8"><rect x="2766" y="462" width="3064" height="1980"/></clipPath><clipPath id="clip9"><rect x="2766" y="462" width="3064" height="1980"/></clipPath><clipPath id="clip10"><rect x="2766" y="462" width="3064" height="1980"/></clipPath><clipPath id="clip11"><rect x="2766" y="462" width="3064" height="1980"/></clipPath><clipPath id="clip12"><rect x="2766" y="462" width="3064" height="1980"/></clipPath><clipPath id="clip13"><rect x="2766" y="462" width="3064" height="1980"/></clipPath><clipPath id="clip14"><rect x="2766" y="462" width="3064" height="1980"/></clipPath><clipPath id="clip15"><rect x="2766" y="462" width="3064" height="1980"/></clipPath><clipPath id="clip16"><rect x="2766" y="462" width="3064" height="1980"/></clipPath><clipPath id="clip17"><rect x="2766" y="462" width="3064" height="1980"/></clipPath><clipPath id="clip18"><rect x="2766" y="462" width="3064" height="1980"/></clipPath><clipPath id="clip19"><rect x="2766" y="462" width="3064" height="1980"/></clipPath><clipPath id="clip20"><rect x="2766" y="462" width="3064" height="1980"/></clipPath><clipPath id="clip21"><rect x="2766" y="462" width="3064" height="1980"/></clipPath><clipPath id="clip22"><rect x="2766" y="462" width="3064" height="1980"/></clipPath><clipPath id="clip23"><rect x="2766" y="462" width="3064" height="1980"/></clipPath></defs><g clip-path="url(#clip0)" transform="translate(-2763 -458)"><rect x="2766" y="463" width="3064" height="1980" fill="#FFFFFF" fill-opacity="1"/><g clip-path="url(#clip1)"><path d="M2993.5 1992.57 5758.5 1992.57M2993.5 1746.56 5758.5 1746.56M2993.5 1499.55 5758.5 1499.55M2993.5 1253.54 5758.5 1253.54M2993.5 1006.53 5758.5 1006.53M2993.5 759.525 5758.5 759.525M2993.5 513.5 5758.5 513.5" stroke="#D9D9D9" stroke-width="3.4375" stroke-linecap="butt" stroke-linejoin="round" stroke-miterlimit="10" stroke-opacity="1" fill="none" fill-rule="evenodd"/></g><g clip-path="url(#clip2)"><path d="M3454.61 513.5 3454.61 2239.5M3915.63 513.5 3915.63 2239.5M4376.64 513.5 4376.64 2239.5M4836.66 513.5 4836.66 2239.5M5297.67 513.5 5297.67 2239.5M5758.5 513.5 5758.5 2239.5" stroke="#D9D9D9" stroke-width="3.4375" stroke-linecap="butt" stroke-linejoin="round" stroke-miterlimit="10" stroke-opacity="1" fill="none" fill-rule="evenodd"/></g><g clip-path="url(#clip3)"><path d="M0 0 0.000360892 1726" stroke="#BFBFBF" stroke-width="3.4375" stroke-linecap="butt" stroke-linejoin="round" stroke-miterlimit="10" stroke-opacity="1" fill="none" fill-rule="evenodd" transform="matrix(1 0 0 -1 2993.5 2239.5)"/></g><g clip-path="url(#clip4)"><path d="M2993.5 2239.5 5758.5 2239.5" stroke="#BFBFBF" stroke-width="3.4375" stroke-linecap="butt" stroke-linejoin="round" stroke-miterlimit="10" stroke-opacity="1" fill="none" fill-rule="evenodd"/></g><g clip-path="url(#clip5)"><path d="M2993.5 2239.5 3086.6 2236.57 3178.6 2229.57 3270.61 2217.57 3362.61 2199.57 3454.61 2177.57 3546.62 2150.57 3638.62 2118.57 3731.62 2081.57 3823.63 2039.57 3915.63 1992.57 4007.63 1941.56 4099.63 1884.56 4191.64 1822.56 4284.64 1756.56 4376.64 1684.56 4468.65 1608.55 4652.65 1440.55 4744.66 1349.54 4836.66 1253.54 4929.66 1151.54 5021.67 1045.53 5113.67 934.531 5205.67 819.527 5297.5 698.5" stroke="#FF2F92" stroke-width="9.16667" stroke-linecap="round" stroke-linejoin="round" stroke-miterlimit="10" stroke-opacity="1" fill="none" fill-rule="evenodd"/></g><g clip-path="url(#clip6)"><path d="M3004.54 2239.42C3004.54 2245.49 2999.62 2250.42 2993.54 2250.42 2987.47 2250.42 2982.54 2245.49 2982.54 2239.42 2982.54 2233.34 2987.47 2228.42 2993.54 2228.42 2999.62 2228.42 3004.54 2233.34 3004.54 2239.42Z" stroke="#4472C4" stroke-width="3.4375" stroke-linecap="butt" stroke-linejoin="round" stroke-miterlimit="10" stroke-opacity="1" fill="#FF2F92" fill-rule="evenodd" fill-opacity="1"/><path d="M3097.54 2236.42C3097.54 2242.49 3092.62 2247.42 3086.54 2247.42 3080.47 2247.42 3075.54 2242.49 3075.54 2236.42 3075.54 2230.34 3080.47 2225.42 3086.54 2225.42 3092.62 2225.42 3097.54 2230.34 3097.54 2236.42Z" stroke="#4472C4" stroke-width="3.4375" stroke-linecap="butt" stroke-linejoin="round" stroke-miterlimit="10" stroke-opacity="1" fill="#FF2F92" fill-rule="evenodd" fill-opacity="1"/><path d="M3189.54 2229.42C3189.54 2235.49 3184.62 2240.42 3178.54 2240.42 3172.47 2240.42 3167.54 2235.49 3167.54 2229.42 3167.54 2223.34 3172.47 2218.42 3178.54 2218.42 3184.62 2218.42 3189.54 2223.34 3189.54 2229.42Z" stroke="#4472C4" stroke-width="3.4375" stroke-linecap="butt" stroke-linejoin="round" stroke-miterlimit="10" stroke-opacity="1" fill="#FF2F92" fill-rule="evenodd" fill-opacity="1"/><path d="M3281.54 2217.42C3281.54 2223.49 3276.62 2228.42 3270.54 2228.42 3264.47 2228.42 3259.54 2223.49 3259.54 2217.42 3259.54 2211.34 3264.47 2206.42 3270.54 2206.42 3276.62 2206.42 3281.54 2211.34 3281.54 2217.42Z" stroke="#4472C4" stroke-width="3.4375" stroke-linecap="butt" stroke-linejoin="round" stroke-miterlimit="10" stroke-opacity="1" fill="#FF2F92" fill-rule="evenodd" fill-opacity="1"/><path d="M3373.54 2199.42C3373.54 2205.49 3368.62 2210.42 3362.54 2210.42 3356.47 2210.42 3351.54 2205.49 3351.54 2199.42 3351.54 2193.34 3356.47 2188.42 3362.54 2188.42 3368.62 2188.42 3373.54 2193.34 3373.54 2199.42Z" stroke="#4472C4" stroke-width="3.4375" stroke-linecap="butt" stroke-linejoin="round" stroke-miterlimit="10" stroke-opacity="1" fill="#FF2F92" fill-rule="evenodd" fill-opacity="1"/><path d="M3465.54 2177.42C3465.54 2183.49 3460.62 2188.42 3454.54 2188.42 3448.47 2188.42 3443.54 2183.49 3443.54 2177.42 3443.54 2171.34 3448.47 2166.42 3454.54 2166.42 3460.62 2166.42 3465.54 2171.34 3465.54 2177.42Z" stroke="#4472C4" stroke-width="3.4375" stroke-linecap="butt" stroke-linejoin="round" stroke-miterlimit="10" stroke-opacity="1" fill="#FF2F92" fill-rule="evenodd" fill-opacity="1"/><path d="M3557.54 2150.42C3557.54 2156.49 3552.62 2161.42 3546.54 2161.42 3540.47 2161.42 3535.54 2156.49 3535.54 2150.42 3535.54 2144.34 3540.47 2139.42 3546.54 2139.42 3552.62 2139.42 3557.54 2144.34 3557.54 2150.42Z" stroke="#4472C4" stroke-width="3.4375" stroke-linecap="butt" stroke-linejoin="round" stroke-miterlimit="10" stroke-opacity="1" fill="#FF2F92" fill-rule="evenodd" fill-opacity="1"/><path d="M3650.54 2118.42C3650.54 2124.49 3645.62 2129.42 3639.54 2129.42 3633.47 2129.42 3628.54 2124.49 3628.54 2118.42 3628.54 2112.34 3633.47 2107.42 3639.54 2107.42 3645.62 2107.42 3650.54 2112.34 3650.54 2118.42Z" stroke="#4472C4" stroke-width="3.4375" stroke-linecap="butt" stroke-linejoin="round" stroke-miterlimit="10" stroke-opacity="1" fill="#FF2F92" fill-rule="evenodd" fill-opacity="1"/><path d="M3742.54 2081.42C3742.54 2087.49 3737.62 2092.42 3731.54 2092.42 3725.47 2092.42 3720.54 2087.49 3720.54 2081.42 3720.54 2075.34 3725.47 2070.42 3731.54 2070.42 3737.62 2070.42 3742.54 2075.34 3742.54 2081.42Z" stroke="#4472C4" stroke-width="3.4375" stroke-linecap="butt" stroke-linejoin="round" stroke-miterlimit="10" stroke-opacity="1" fill="#FF2F92" fill-rule="evenodd" fill-opacity="1"/><path d="M3834.54 2039.42C3834.54 2045.49 3829.62 2050.42 3823.54 2050.42 3817.47 2050.42 3812.54 2045.49 3812.54 2039.42 3812.54 2033.34 3817.47 2028.42 3823.54 2028.42 3829.62 2028.42 3834.54 2033.34 3834.54 2039.42Z" stroke="#4472C4" stroke-width="3.4375" stroke-linecap="butt" stroke-linejoin="round" stroke-miterlimit="10" stroke-opacity="1" fill="#FF2F92" fill-rule="evenodd" fill-opacity="1"/><path d="M3926.54 1992.42C3926.54 1998.49 3921.62 2003.42 3915.54 2003.42 3909.47 2003.42 3904.54 1998.49 3904.54 1992.42 3904.54 1986.34 3909.47 1981.42 3915.54 1981.42 3921.62 1981.42 3926.54 1986.34 3926.54 1992.42Z" stroke="#4472C4" stroke-width="3.4375" stroke-linecap="butt" stroke-linejoin="round" stroke-miterlimit="10" stroke-opacity="1" fill="#FF2F92" fill-rule="evenodd" fill-opacity="1"/><path d="M4018.54 1941.42C4018.54 1947.49 4013.62 1952.42 4007.54 1952.42 4001.47 1952.42 3996.54 1947.49 3996.54 1941.42 3996.54 1935.34 4001.47 1930.42 4007.54 1930.42 4013.62 1930.42 4018.54 1935.34 4018.54 1941.42Z" stroke="#4472C4" stroke-width="3.4375" stroke-linecap="butt" stroke-linejoin="round" stroke-miterlimit="10" stroke-opacity="1" fill="#FF2F92" fill-rule="evenodd" fill-opacity="1"/><path d="M4110.54 1884.42C4110.54 1890.49 4105.62 1895.42 4099.54 1895.42 4093.47 1895.42 4088.54 1890.49 4088.54 1884.42 4088.54 1878.34 4093.47 1873.42 4099.54 1873.42 4105.62 1873.42 4110.54 1878.34 4110.54 1884.42Z" stroke="#4472C4" stroke-width="3.4375" stroke-linecap="butt" stroke-linejoin="round" stroke-miterlimit="10" stroke-opacity="1" fill="#FF2F92" fill-rule="evenodd" fill-opacity="1"/><path d="M4203.54 1822.42C4203.54 1828.49 4198.62 1833.42 4192.54 1833.42 4186.47 1833.42 4181.54 1828.49 4181.54 1822.42 4181.54 1816.34 4186.47 1811.42 4192.54 1811.42 4198.62 1811.42 4203.54 1816.34 4203.54 1822.42Z" stroke="#4472C4" stroke-width="3.4375" stroke-linecap="butt" stroke-linejoin="round" stroke-miterlimit="10" stroke-opacity="1" fill="#FF2F92" fill-rule="evenodd" fill-opacity="1"/><path d="M4295.54 1756.42C4295.54 1762.49 4290.62 1767.42 4284.54 1767.42 4278.47 1767.42 4273.54 1762.49 4273.54 1756.42 4273.54 1750.34 4278.47 1745.42 4284.54 1745.42 4290.62 1745.42 4295.54 1750.34 4295.54 1756.42Z" stroke="#4472C4" stroke-width="3.4375" stroke-linecap="butt" stroke-linejoin="round" stroke-miterlimit="10" stroke-opacity="1" fill="#FF2F92" fill-rule="evenodd" fill-opacity="1"/><path d="M4387.54 1684.42C4387.54 1690.49 4382.62 1695.42 4376.54 1695.42 4370.47 1695.42 4365.54 1690.49 4365.54 1684.42 4365.54 1678.34 4370.47 1673.42 4376.54 1673.42 4382.62 1673.42 4387.54 1678.34 4387.54 1684.42Z" stroke="#4472C4" stroke-width="3.4375" stroke-linecap="butt" stroke-linejoin="round" stroke-miterlimit="10" stroke-opacity="1" fill="#FF2F92" fill-rule="evenodd" fill-opacity="1"/><path d="M4479.54 1608.42C4479.54 1614.49 4474.62 1619.42 4468.54 1619.42 4462.47 1619.42 4457.54 1614.49 4457.54 1608.42 4457.54 1602.34 4462.47 1597.42 4468.54 1597.42 4474.62 1597.42 4479.54 1602.34 4479.54 1608.42Z" stroke="#4472C4" stroke-width="3.4375" stroke-linecap="butt" stroke-linejoin="round" stroke-miterlimit="10" stroke-opacity="1" fill="#FF2F92" fill-rule="evenodd" fill-opacity="1"/><path d="M4663.54 1440.42C4663.54 1446.49 4658.62 1451.42 4652.54 1451.42 4646.47 1451.42 4641.54 1446.49 4641.54 1440.42 4641.54 1434.34 4646.47 1429.42 4652.54 1429.42 4658.62 1429.42 4663.54 1434.34 4663.54 1440.42Z" stroke="#4472C4" stroke-width="3.4375" stroke-linecap="butt" stroke-linejoin="round" stroke-miterlimit="10" stroke-opacity="1" fill="#FF2F92" fill-rule="evenodd" fill-opacity="1"/><path d="M4755.54 1349.42C4755.54 1355.49 4750.62 1360.42 4744.54 1360.42 4738.47 1360.42 4733.54 1355.49 4733.54 1349.42 4733.54 1343.34 4738.47 1338.42 4744.54 1338.42 4750.62 1338.42 4755.54 1343.34 4755.54 1349.42Z" stroke="#4472C4" stroke-width="3.4375" stroke-linecap="butt" stroke-linejoin="round" stroke-miterlimit="10" stroke-opacity="1" fill="#FF2F92" fill-rule="evenodd" fill-opacity="1"/><path d="M4848.54 1253.42C4848.54 1259.49 4843.62 1264.42 4837.54 1264.42 4831.47 1264.42 4826.54 1259.49 4826.54 1253.42 4826.54 1247.34 4831.47 1242.42 4837.54 1242.42 4843.62 1242.42 4848.54 1247.34 4848.54 1253.42Z" stroke="#4472C4" stroke-width="3.4375" stroke-linecap="butt" stroke-linejoin="round" stroke-miterlimit="10" stroke-opacity="1" fill="#FF2F92" fill-rule="evenodd" fill-opacity="1"/><path d="M4940.54 1151.42C4940.54 1157.49 4935.62 1162.42 4929.54 1162.42 4923.47 1162.42 4918.54 1157.49 4918.54 1151.42 4918.54 1145.34 4923.47 1140.42 4929.54 1140.42 4935.62 1140.42 4940.54 1145.34 4940.54 1151.42Z" stroke="#4472C4" stroke-width="3.4375" stroke-linecap="butt" stroke-linejoin="round" stroke-miterlimit="10" stroke-opacity="1" fill="#FF2F92" fill-rule="evenodd" fill-opacity="1"/><path d="M5032.54 1045.42C5032.54 1051.49 5027.62 1056.42 5021.54 1056.42 5015.47 1056.42 5010.54 1051.49 5010.54 1045.42 5010.54 1039.34 5015.47 1034.42 5021.54 1034.42 5027.62 1034.42 5032.54 1039.34 5032.54 1045.42Z" stroke="#4472C4" stroke-width="3.4375" stroke-linecap="butt" stroke-linejoin="round" stroke-miterlimit="10" stroke-opacity="1" fill="#FF2F92" fill-rule="evenodd" fill-opacity="1"/><path d="M5124.54 934.417C5124.54 940.492 5119.62 945.416 5113.54 945.416 5107.47 945.416 5102.54 940.492 5102.54 934.417 5102.54 928.342 5107.47 923.417 5113.54 923.417 5119.62 923.417 5124.54 928.342 5124.54 934.417Z" stroke="#4472C4" stroke-width="3.4375" stroke-linecap="butt" stroke-linejoin="round" stroke-miterlimit="10" stroke-opacity="1" fill="#FF2F92" fill-rule="evenodd" fill-opacity="1"/><path d="M5216.54 819.417C5216.54 825.492 5211.62 830.416 5205.54 830.416 5199.47 830.416 5194.54 825.492 5194.54 819.417 5194.54 813.342 5199.47 808.417 5205.54 808.417 5211.62 808.417 5216.54 813.342 5216.54 819.417Z" stroke="#4472C4" stroke-width="3.4375" stroke-linecap="butt" stroke-linejoin="round" stroke-miterlimit="10" stroke-opacity="1" fill="#FF2F92" fill-rule="evenodd" fill-opacity="1"/><path d="M5308.54 698.417C5308.54 704.492 5303.62 709.416 5297.54 709.416 5291.47 709.416 5286.54 704.492 5286.54 698.417 5286.54 692.342 5291.47 687.417 5297.54 687.417 5303.62 687.417 5308.54 692.342 5308.54 698.417Z" stroke="#4472C4" stroke-width="3.4375" stroke-linecap="butt" stroke-linejoin="round" stroke-miterlimit="10" stroke-opacity="1" fill="#FF2F92" fill-rule="evenodd" fill-opacity="1"/></g><g clip-path="url(#clip7)"><text fill="#595959" fill-opacity="1" font-family="Calibri,Calibri_MSFontService,sans-serif" font-style="normal" font-variant="normal" font-weight="400" font-stretch="normal" font-size="41" text-anchor="start" direction="ltr" writing-mode="lr-tb" unicode-bidi="normal" text-decoration="none" transform="matrix(1 0 0 1 2934.82 2250)">0</text></g><g clip-path="url(#clip8)"><text fill="#595959" fill-opacity="1" font-family="Calibri,Calibri_MSFontService,sans-serif" font-style="normal" font-variant="normal" font-weight="400" font-stretch="normal" font-size="41" text-anchor="start" direction="ltr" writing-mode="lr-tb" unicode-bidi="normal" text-decoration="none" transform="matrix(1 0 0 1 2893.02 2003)">100</text></g><g clip-path="url(#clip9)"><text fill="#595959" fill-opacity="1" font-family="Calibri,Calibri_MSFontService,sans-serif" font-style="normal" font-variant="normal" font-weight="400" font-stretch="normal" font-size="41" text-anchor="start" direction="ltr" writing-mode="lr-tb" unicode-bidi="normal" text-decoration="none" transform="matrix(1 0 0 1 2893.02 1757)">200</text></g><g clip-path="url(#clip10)"><text fill="#595959" fill-opacity="1" font-family="Calibri,Calibri_MSFontService,sans-serif" font-style="normal" font-variant="normal" font-weight="400" font-stretch="normal" font-size="41" text-anchor="start" direction="ltr" writing-mode="lr-tb" unicode-bidi="normal" text-decoration="none" transform="matrix(1 0 0 1 2893.02 1510)">300</text></g><g clip-path="url(#clip11)"><text fill="#595959" fill-opacity="1" font-family="Calibri,Calibri_MSFontService,sans-serif" font-style="normal" font-variant="normal" font-weight="400" font-stretch="normal" font-size="41" text-anchor="start" direction="ltr" writing-mode="lr-tb" unicode-bidi="normal" text-decoration="none" transform="matrix(1 0 0 1 2893.02 1264)">400</text></g><g clip-path="url(#clip12)"><text fill="#595959" fill-opacity="1" font-family="Calibri,Calibri_MSFontService,sans-serif" font-style="normal" font-variant="normal" font-weight="400" font-stretch="normal" font-size="41" text-anchor="start" direction="ltr" writing-mode="lr-tb" unicode-bidi="normal" text-decoration="none" transform="matrix(1 0 0 1 2893.02 1017)">500</text></g><g clip-path="url(#clip13)"><text fill="#595959" fill-opacity="1" font-family="Calibri,Calibri_MSFontService,sans-serif" font-style="normal" font-variant="normal" font-weight="400" font-stretch="normal" font-size="41" text-anchor="start" direction="ltr" writing-mode="lr-tb" unicode-bidi="normal" text-decoration="none" transform="matrix(1 0 0 1 2893.02 770)">600</text></g><g clip-path="url(#clip14)"><text fill="#595959" fill-opacity="1" font-family="Calibri,Calibri_MSFontService,sans-serif" font-style="normal" font-variant="normal" font-weight="400" font-stretch="normal" font-size="41" text-anchor="start" direction="ltr" writing-mode="lr-tb" unicode-bidi="normal" text-decoration="none" transform="matrix(1 0 0 1 2893.02 524)">700</text></g><g clip-path="url(#clip15)"><text fill="#595959" fill-opacity="1" font-family="Calibri,Calibri_MSFontService,sans-serif" font-style="normal" font-variant="normal" font-weight="400" font-stretch="normal" font-size="41" text-anchor="start" direction="ltr" writing-mode="lr-tb" unicode-bidi="normal" text-decoration="none" transform="matrix(1 0 0 1 2983.52 2305)">0</text></g><g clip-path="url(#clip16)"><text fill="#595959" fill-opacity="1" font-family="Calibri,Calibri_MSFontService,sans-serif" font-style="normal" font-variant="normal" font-weight="400" font-stretch="normal" font-size="41" text-anchor="start" direction="ltr" writing-mode="lr-tb" unicode-bidi="normal" text-decoration="none" transform="matrix(1 0 0 1 3444.31 2305)">5</text></g><g clip-path="url(#clip17)"><text fill="#595959" fill-opacity="1" font-family="Calibri,Calibri_MSFontService,sans-serif" font-style="normal" font-variant="normal" font-weight="400" font-stretch="normal" font-size="41" text-anchor="start" direction="ltr" writing-mode="lr-tb" unicode-bidi="normal" text-decoration="none" transform="matrix(1 0 0 1 3894.64 2305)">10</text></g><g clip-path="url(#clip18)"><text fill="#595959" fill-opacity="1" font-family="Calibri,Calibri_MSFontService,sans-serif" font-style="normal" font-variant="normal" font-weight="400" font-stretch="normal" font-size="41" text-anchor="start" direction="ltr" writing-mode="lr-tb" unicode-bidi="normal" text-decoration="none" transform="matrix(1 0 0 1 4355.43 2305)">15</text></g><g clip-path="url(#clip19)"><text fill="#595959" fill-opacity="1" font-family="Calibri,Calibri_MSFontService,sans-serif" font-style="normal" font-variant="normal" font-weight="400" font-stretch="normal" font-size="41" text-anchor="start" direction="ltr" writing-mode="lr-tb" unicode-bidi="normal" text-decoration="none" transform="matrix(1 0 0 1 4816.21 2305)">20</text></g><g clip-path="url(#clip20)"><text fill="#595959" fill-opacity="1" font-family="Calibri,Calibri_MSFontService,sans-serif" font-style="normal" font-variant="normal" font-weight="400" font-stretch="normal" font-size="41" text-anchor="start" direction="ltr" writing-mode="lr-tb" unicode-bidi="normal" text-decoration="none" transform="matrix(1 0 0 1 5277 2305)">25</text></g><g clip-path="url(#clip21)"><text fill="#595959" fill-opacity="1" font-family="Calibri,Calibri_MSFontService,sans-serif" font-style="normal" font-variant="normal" font-weight="400" font-stretch="normal" font-size="41" text-anchor="start" direction="ltr" writing-mode="lr-tb" unicode-bidi="normal" text-decoration="none" transform="matrix(1 0 0 1 5737.78 2305)">30</text></g><g clip-path="url(#clip22)"><text fill="#595959" fill-opacity="1" font-family="Calibri,Calibri_MSFontService,sans-serif" font-style="normal" font-variant="normal" font-weight="400" font-stretch="normal" font-size="46" text-anchor="start" direction="ltr" writing-mode="lr-tb" unicode-bidi="normal" text-decoration="none" transform="matrix(6.12323e-17 -1 1 6.12323e-17 2867.33 1466)">RUNTIME</text></g><g clip-path="url(#clip23)"><text fill="#595959" fill-opacity="1" font-family="Calibri,Calibri_MSFontService,sans-serif" font-style="normal" font-variant="normal" font-weight="400" font-stretch="normal" font-size="46" text-anchor="start" direction="ltr" writing-mode="lr-tb" unicode-bidi="normal" text-decoration="none" transform="matrix(1 0 0 1 4364.28 2374)">n</text></g><rect x="2766.5" y="463.5" width="3064" height="1980" stroke="#D9D9D9" stroke-width="3.4375" stroke-linecap="butt" stroke-linejoin="round" stroke-miterlimit="10" stroke-opacity="1" fill="none"/></g></svg>