<svg width="2760" height="1888" xmlns="http://www.w3.org/2000/svg" xmlns:xlink="http://www.w3.org/1999/xlink" overflow="hidden"><defs><clipPath id="clip0"><rect x="1255" y="866" width="2760" height="1888"/></clipPath><clipPath id="clip1"><rect x="1258" y="870" width="2752" height="1880"/></clipPath><clipPath id="clip2"><rect x="1258" y="870" width="2752" height="1880"/></clipPath><clipPath id="clip3"><rect x="1258" y="870" width="2752" height="1880"/></clipPath><clipPath id="clip4"><rect x="1376" y="921" width="2576" height="1630"/></clipPath><clipPath id="clip5"><rect x="1258" y="870" width="2752" height="1880"/></clipPath><clipPath id="clip6"><rect x="1258" y="870" width="2752" height="1880"/></clipPath><clipPath id="clip7"><rect x="1258" y="870" width="2752" height="1880"/></clipPath><clipPath id="clip8"><rect x="1258" y="870" width="2752" height="1880"/></clipPath><clipPath id="clip9"><rect x="1258" y="870" width="2752" height="1880"/></clipPath><clipPath id="clip10"><rect x="1258" y="870" width="2752" height="1880"/></clipPath><clipPath id="clip11"><rect x="1258" y="870" width="2752" height="1880"/></clipPath><clipPath id="clip12"><rect x="1258" y="870" width="2752" height="1880"/></clipPath><clipPath id="clip13"><rect x="1258" y="870" width="2752" height="1880"/></clipPath><clipPath id="clip14"><rect x="1258" y="870" width="2752" height="1880"/></clipPath><clipPath id="clip15"><rect x="1258" y="870" width="2752" height="1880"/></clipPath></defs><g clip-path="url(#clip0)" transform="translate(-1255 -866)"><rect x="1258" y="871" width="2752" height="1879" fill="#FFFFFF" fill-opacity="1"/><g clip-path="url(#clip1)"><path d="M1376.5 2315.58 3949.5 2315.58M1376.5 2082.57 3949.5 2082.57M1376.5 1850.56 3949.5 1850.56M1376.5 1618.55 3949.5 1618.55M1376.5 1385.55 3949.5 1385.55M1376.5 1153.54 3949.5 1153.54M1376.5 921.5 3949.5 921.5" stroke="#D9D9D9" stroke-width="3.4375" stroke-linecap="butt" stroke-linejoin="round" stroke-miterlimit="10" stroke-opacity="1" fill="none" fill-rule="evenodd"/></g><g clip-path="url(#clip2)"><path d="M1376.5 921.5 1376.5 2547.5M1744.56 921.5 1744.56 2547.5M2111.57 921.5 2111.57 2547.5M2479.58 921.5 2479.58 2547.5M2846.59 921.5 2846.59 2547.5M3214.61 921.5 3214.61 2547.5M3581.62 921.5 3581.62 2547.5M3949.5 921.5 3949.5 2547.5" stroke="#D9D9D9" stroke-width="3.4375" stroke-linecap="butt" stroke-linejoin="round" stroke-miterlimit="10" stroke-opacity="1" fill="none" fill-rule="evenodd"/></g><g clip-path="url(#clip3)"><path d="M1376.5 2547.5 3949.5 2547.5" stroke="#BFBFBF" stroke-width="3.4375" stroke-linecap="butt" stroke-linejoin="round" stroke-miterlimit="10" stroke-opacity="1" fill="none" fill-rule="evenodd"/></g><g clip-path="url(#clip4)"><path d="M1744.5 2315.5 2111.57 2082.57 2479.58 1850.56 2846.59 1618.55 3214.61 1385.55 3582.5 1153.5" stroke="#FF2F92" stroke-width="9.16667" stroke-linecap="round" stroke-linejoin="round" stroke-miterlimit="10" stroke-opacity="1" fill="none" fill-rule="evenodd"/></g><g clip-path="url(#clip5)"><path d="M1755.62 2315.33C1755.62 2321.41 1750.7 2326.33 1744.62 2326.33 1738.55 2326.33 1733.62 2321.41 1733.62 2315.33 1733.62 2309.26 1738.55 2304.33 1744.62 2304.33 1750.7 2304.33 1755.62 2309.26 1755.62 2315.33Z" stroke="#4472C4" stroke-width="3.4375" stroke-linecap="butt" stroke-linejoin="round" stroke-miterlimit="10" stroke-opacity="1" fill="#FF2F92" fill-rule="evenodd" fill-opacity="1"/><path d="M2122.62 2083.33C2122.62 2089.41 2117.7 2094.33 2111.62 2094.33 2105.55 2094.33 2100.62 2089.41 2100.62 2083.33 2100.62 2077.26 2105.55 2072.33 2111.62 2072.33 2117.7 2072.33 2122.62 2077.26 2122.62 2083.33Z" stroke="#4472C4" stroke-width="3.4375" stroke-linecap="butt" stroke-linejoin="round" stroke-miterlimit="10" stroke-opacity="1" fill="#FF2F92" fill-rule="evenodd" fill-opacity="1"/><path d="M2490.62 1850.33C2490.62 1856.41 2485.7 1861.33 2479.62 1861.33 2473.55 1861.33 2468.62 1856.41 2468.62 1850.33 2468.62 1844.26 2473.55 1839.33 2479.62 1839.33 2485.7 1839.33 2490.62 1844.26 2490.62 1850.33Z" stroke="#4472C4" stroke-width="3.4375" stroke-linecap="butt" stroke-linejoin="round" stroke-miterlimit="10" stroke-opacity="1" fill="#FF2F92" fill-rule="evenodd" fill-opacity="1"/><path d="M2858.62 1618.33C2858.62 1624.41 2853.7 1629.33 2847.62 1629.33 2841.55 1629.33 2836.62 1624.41 2836.62 1618.33 2836.62 1612.26 2841.55 1607.33 2847.62 1607.33 2853.7 1607.33 2858.62 1612.26 2858.62 1618.33Z" stroke="#4472C4" stroke-width="3.4375" stroke-linecap="butt" stroke-linejoin="round" stroke-miterlimit="10" stroke-opacity="1" fill="#FF2F92" fill-rule="evenodd" fill-opacity="1"/><path d="M3225.62 1385.33C3225.62 1391.41 3220.7 1396.33 3214.62 1396.33 3208.55 1396.33 3203.62 1391.41 3203.62 1385.33 3203.62 1379.26 3208.55 1374.33 3214.62 1374.33 3220.7 1374.33 3225.62 1379.26 3225.62 1385.33Z" stroke="#4472C4" stroke-width="3.4375" stroke-linecap="butt" stroke-linejoin="round" stroke-miterlimit="10" stroke-opacity="1" fill="#FF2F92" fill-rule="evenodd" fill-opacity="1"/><path d="M3593.62 1153.33C3593.62 1159.41 3588.7 1164.33 3582.62 1164.33 3576.55 1164.33 3571.62 1159.41 3571.62 1153.33 3571.62 1147.26 3576.55 1142.33 3582.62 1142.33 3588.7 1142.33 3593.62 1147.26 3593.62 1153.33Z" stroke="#4472C4" stroke-width="3.4375" stroke-linecap="butt" stroke-linejoin="round" stroke-miterlimit="10" stroke-opacity="1" fill="#FF2F92" fill-rule="evenodd" fill-opacity="1"/></g><g clip-path="url(#clip6)"><text fill="#595959" fill-opacity="1" font-family="Calibri,Calibri_MSFontService,sans-serif" font-style="normal" font-variant="normal" font-weight="400" font-stretch="normal" font-size="41" text-anchor="start" direction="ltr" writing-mode="lr-tb" unicode-bidi="normal" text-decoration="none" transform="matrix(1 0 0 1 1366.52 2613)">0</text></g><g clip-path="url(#clip7)"><text fill="#595959" fill-opacity="1" font-family="Calibri,Calibri_MSFontService,sans-serif" font-style="normal" font-variant="normal" font-weight="400" font-stretch="normal" font-size="41" text-anchor="start" direction="ltr" writing-mode="lr-tb" unicode-bidi="normal" text-decoration="none" transform="matrix(1 0 0 1 1734.03 2613)">1</text></g><g clip-path="url(#clip8)"><text fill="#595959" fill-opacity="1" font-family="Calibri,Calibri_MSFontService,sans-serif" font-style="normal" font-variant="normal" font-weight="400" font-stretch="normal" font-size="41" text-anchor="start" direction="ltr" writing-mode="lr-tb" unicode-bidi="normal" text-decoration="none" transform="matrix(1 0 0 1 2101.54 2613)">2</text></g><g clip-path="url(#clip9)"><text fill="#595959" fill-opacity="1" font-family="Calibri,Calibri_MSFontService,sans-serif" font-style="normal" font-variant="normal" font-weight="400" font-stretch="normal" font-size="41" text-anchor="start" direction="ltr" writing-mode="lr-tb" unicode-bidi="normal" text-decoration="none" transform="matrix(1 0 0 1 2469.05 2613)">3</text></g><g clip-path="url(#clip10)"><text fill="#595959" fill-opacity="1" font-family="Calibri,Calibri_MSFontService,sans-serif" font-style="normal" font-variant="normal" font-weight="400" font-stretch="normal" font-size="41" text-anchor="start" direction="ltr" writing-mode="lr-tb" unicode-bidi="normal" text-decoration="none" transform="matrix(1 0 0 1 2836.57 2613)">4</text></g><g clip-path="url(#clip11)"><text fill="#595959" fill-opacity="1" font-family="Calibri,Calibri_MSFontService,sans-serif" font-style="normal" font-variant="normal" font-weight="400" font-stretch="normal" font-size="41" text-anchor="start" direction="ltr" writing-mode="lr-tb" unicode-bidi="normal" text-decoration="none" transform="matrix(1 0 0 1 3204.08 2613)">5</text></g><g clip-path="url(#clip12)"><text fill="#595959" fill-opacity="1" font-family="Calibri,Calibri_MSFontService,sans-serif" font-style="normal" font-variant="normal" font-weight="400" font-stretch="normal" font-size="41" text-anchor="start" direction="ltr" writing-mode="lr-tb" unicode-bidi="normal" text-decoration="none" transform="matrix(1 0 0 1 3571.59 2613)">6</text></g><g clip-path="url(#clip13)"><text fill="#595959" fill-opacity="1" font-family="Calibri,Calibri_MSFontService,sans-serif" font-style="normal" font-variant="normal" font-weight="400" font-stretch="normal" font-size="41" text-anchor="start" direction="ltr" writing-mode="lr-tb" unicode-bidi="normal" text-decoration="none" transform="matrix(1 0 0 1 3939.1 2613)">7</text></g><g clip-path="url(#clip14)"><text fill="#595959" fill-opacity="1" font-family="Helvetica Neue,Helvetica Neue_MSFontService,sans-serif" font-style="normal" font-variant="normal" font-weight="400" font-stretch="normal" font-size="46" text-anchor="start" direction="ltr" writing-mode="lr-tb" unicode-bidi="normal" text-decoration="none" transform="matrix(6.12323e-17 -1 1 6.12323e-17 1360.43 1836)">RUNTIME</text></g><g clip-path="url(#clip15)"><text fill="#595959" fill-opacity="1" font-family="Helvetica Neue,Helvetica Neue_MSFontService,sans-serif" font-style="normal" font-variant="normal" font-weight="400" font-stretch="normal" font-size="46" text-anchor="start" direction="ltr" writing-mode="lr-tb" unicode-bidi="normal" text-decoration="none" transform="matrix(1 0 0 1 2650.52 2683)">n</text></g><rect x="1258.5" y="871.5" width="2752" height="1879" stroke="#D9D9D9" stroke-width="3.4375" stroke-linecap="butt" stroke-linejoin="round" stroke-miterlimit="10" stroke-opacity="1" fill="none"/></g></svg>