<?xml version="1.0" encoding="UTF-8"?>
<svg width="739px" height="382px" viewBox="0 0 739 382" version="1.1" xmlns="http://www.w3.org/2000/svg" xmlns:xlink="http://www.w3.org/1999/xlink">
    <title>Artboard Copy</title>
    <g id="Artboard-Copy" stroke="none" stroke-width="1" fill="none" fill-rule="evenodd">
        <rect fill="#FFFFFF" x="0" y="0" width="739" height="382"></rect>
        <g id="Group-3" transform="translate(43.000000, 74.000000)">
            <g id="g3400" transform="translate(45.000000, 0.000000)" stroke="#000000" stroke-width="3">
                <line x1="0.5" y1="39.5" x2="136.326934" y2="39.3865611" id="path3385" stroke-linecap="round"></line>
                <line x1="38.5" y1="62.5" x2="136.326934" y2="62.8770824" id="path3387" stroke-linecap="round"></line>
                <line x1="38.5" y1="62.5" x2="136.326934" y2="62.8770824" id="path3387" stroke-linecap="round"></line>
                <line x1="199.617673" y1="1.76636594" x2="398.5" y2="1.5" id="path3387" stroke-linecap="square"></line>
                <line x1="161.496636" y1="51.1318218" x2="195.527776" y2="51.1318218" id="path3389" stroke-linecap="round"></line>
                <path d="M142.952465,75.5258247 L121.47972,75.5258247 L121.47972,27.791872 L143.090999,27.791872 C154.80542,27.791872 164.425211,38.4842712 164.425211,51.6588446 C164.425211,64.8334179 154.80542,75.5258247 142.952465,75.5258247 L142.952465,75.5258247 Z" id="path3391" fill="#EAEAEA" stroke-linejoin="round"></path>
                <path d="M176.495735,50.9783383 C176.495735,54.3302379 173.778484,57.0474889 170.426585,57.0474889 C167.074683,57.0474889 164.357432,54.3302379 164.357432,50.9783383 C164.357432,47.6264391 167.074683,44.9091875 170.426585,44.9091875 C173.778484,44.9091875 176.495735,47.6264391 176.495735,50.9783383 Z" id="path3393" fill="#EAEAEA" stroke-linecap="round" stroke-linejoin="round"></path>
            </g>
            <g id="g3400" transform="translate(46.000000, 1.000000)" stroke="#000000" stroke-width="3">
                <line x1="0.5" y1="218.5" x2="248.326934" y2="218.877082" id="path3387" stroke-linecap="round"></line>
                <line x1="398.263043" y1="0.944641751" x2="398.5" y2="25.5" id="path3387" stroke-linecap="square"></line>
                <line x1="398.322685" y1="48.8555038" x2="398.5" y2="102.5" id="path3387" stroke-linecap="square"></line>
                <line x1="516.292864" y1="102.900073" x2="516.5" y2="193.5" id="path3387" stroke-linecap="square"></line>
                <line x1="492.307774" y1="37.8777883" x2="492.5" y2="142.5" id="path3387" stroke-linecap="square"></line>
                <line x1="398.5" y1="144.5" x2="398.514911" y2="183.477716" id="path3387" stroke-linecap="square"></line>
                <line x1="399" y1="103" x2="516.5" y2="102.5" id="path3387" stroke-linecap="square"></line>
                <line x1="398.75" y1="144.25" x2="492.5" y2="144.5" id="path3387" stroke-linecap="square"></line>
                <path d="M256.952465,231.525825 L235.47972,231.525825 L235.47972,183.791872 L257.090999,183.791872 C268.80542,183.791872 278.425211,194.484271 278.425211,207.658845 C278.425211,220.833418 268.80542,231.525825 256.952465,231.525825 L256.952465,231.525825 Z" id="path3391" fill="#EAEAEA" stroke-linejoin="round"></path>
                <path d="M290.495735,206.978338 C290.495735,210.330238 287.778484,213.047489 284.426585,213.047489 C281.074683,213.047489 278.357432,210.330238 278.357432,206.978338 C278.357432,203.626439 281.074683,200.909188 284.426585,200.909188 C287.778484,200.909188 290.495735,203.626439 290.495735,206.978338 Z" id="path3393" fill="#EAEAEA" stroke-linecap="round" stroke-linejoin="round"></path>
            </g>
            <line x1="83.5451661" y1="62.5451661" x2="83.5" y2="217.5" id="Line" stroke="#000000" stroke-width="3" stroke-linecap="square" stroke-linejoin="round"></line>
            <line x1="242.5" y1="1.5" x2="242.690796" y2="196.522583" id="Line" stroke="#000000" stroke-width="3" stroke-linecap="square" stroke-linejoin="round"></line>
            <line x1="242.617673" y1="196.766366" x2="281.5" y2="196.5" id="path3387" stroke="#000000" stroke-width="3" stroke-linecap="square"></line>
            <g id="g3400" transform="translate(445.000000, 14.000000)" stroke="#000000" stroke-width="3">
                <line x1="0.295793931" y1="12.3865611" x2="34.3269337" y2="12.3865611" id="path3385" stroke-linecap="round"></line>
                <line x1="0.295793931" y1="35.8770824" x2="34.3269337" y2="35.8770824" id="path3387" stroke-linecap="square"></line>
                <line x1="59.4966364" y1="24.1318218" x2="169.5" y2="24.5" id="path3389" stroke-linecap="round"></line>
                <path d="M40.9524654,48.5258247 L19.4797201,48.5258247 L19.4797201,0.791872042 L41.0909995,0.791872042 C52.8054205,0.791872042 62.4252106,11.4842712 62.4252106,24.6588446 C62.4252106,37.8334179 52.8054205,48.5258247 40.9524654,48.5258247 L40.9524654,48.5258247 Z" id="path3391" fill="#EAEAEA" stroke-linejoin="round"></path>
                <path d="M74.4957345,23.9783383 C74.4957345,27.3302379 71.7784835,30.0474889 68.4265849,30.0474889 C65.0746833,30.0474889 62.3574323,27.3302379 62.3574323,23.9783383 C62.3574323,20.6264391 65.0746833,17.9091875 68.4265849,17.9091875 C71.7784835,17.9091875 74.4957345,20.6264391 74.4957345,23.9783383 Z" id="path3393" fill="#EAEAEA" stroke-linecap="round" stroke-linejoin="round"></path>
            </g>
            <g id="g3400" transform="translate(337.000000, 172.000000)" stroke="#000000" stroke-width="3">
                <line x1="108.295794" y1="12.3865611" x2="142.326934" y2="12.3865611" id="path3385" stroke-linecap="round"></line>
                <line x1="0.5" y1="35.5" x2="142.326934" y2="35.8770824" id="path3387" stroke-linecap="square"></line>
                <line x1="167.496636" y1="24.1318218" x2="224.5" y2="24.5" id="path3389" stroke-linecap="square"></line>
                <path d="M148.952465,48.5258247 L127.47972,48.5258247 L127.47972,0.791872042 L149.090999,0.791872042 C160.80542,0.791872042 170.425211,11.4842712 170.425211,24.6588446 C170.425211,37.8334179 160.80542,48.5258247 148.952465,48.5258247 L148.952465,48.5258247 Z" id="path3391" fill="#EAEAEA" stroke-linejoin="round"></path>
                <path d="M182.495735,23.9783383 C182.495735,27.3302379 179.778484,30.0474889 176.426585,30.0474889 C173.074683,30.0474889 170.357432,27.3302379 170.357432,23.9783383 C170.357432,20.6264391 173.074683,17.9091875 176.426585,17.9091875 C179.778484,17.9091875 182.495735,20.6264391 182.495735,23.9783383 Z" id="path3393" fill="#EAEAEA" stroke-linecap="round" stroke-linejoin="round"></path>
            </g>
            <circle id="Oval" fill="#000000" cx="84" cy="218" r="8"></circle>
            <circle id="Oval" fill="#000000" cx="562" cy="196" r="8"></circle>
            <circle id="Oval" fill="#000000" cx="539" cy="38" r="8"></circle>
            <text id="N1" font-family="BalsamiqSans-Regular, Balsamiq Sans" font-size="14" font-weight="normal" fill="#000000">
                <tspan x="178" y="57">N1</tspan>
            </text>
            <text id="N2" font-family="BalsamiqSans-Regular, Balsamiq Sans" font-size="14" font-weight="normal" fill="#000000">
                <tspan x="293" y="213">N2</tspan>
            </text>
            <text id="N3" font-family="BalsamiqSans-Regular, Balsamiq Sans" font-size="14" font-weight="normal" fill="#000000">
                <tspan x="475" y="44">N3</tspan>
            </text>
            <text id="N4" font-family="BalsamiqSans-Regular, Balsamiq Sans" font-size="14" font-weight="normal" fill="#000000">
                <tspan x="475" y="203">N4</tspan>
            </text>
            <g id="Group-Copy" transform="translate(0.000000, 207.000000)">
                <g id="Group-3-Copy-3">
                    <polygon id="Fill-12" fill="#FFFFBF" points="0 28 28 28 28 0 0 0"></polygon>
                    <polygon id="Stroke-13" stroke="#000000" stroke-width="2" stroke-linecap="round" stroke-linejoin="round" points="0 0 28 0 28 28 0 28"></polygon>
                </g>
                <text id="S" font-family="BalsamiqSans-Regular, Balsamiq Sans" font-size="18" font-weight="normal" fill="#000000">
                    <tspan x="8" y="20">S</tspan>
                </text>
            </g>
            <g id="Group-Copy-2" transform="translate(0.000000, 27.000000)">
                <g id="Group-3-Copy-3">
                    <polygon id="Fill-12" fill="#FFFFBF" points="0 28 28 28 28 0 0 0"></polygon>
                    <polygon id="Stroke-13" stroke="#000000" stroke-width="2" stroke-linecap="round" stroke-linejoin="round" points="0 0 28 0 28 28 0 28"></polygon>
                </g>
                <text id="I" font-family="BalsamiqSans-Regular, Balsamiq Sans" font-size="18" font-weight="normal" fill="#000000">
                    <tspan x="11" y="20">I</tspan>
                </text>
            </g>
            <g id="Group-2-Copy" transform="translate(630.000000, 26.000000)">
                <g id="Group-3-Copy-3" transform="translate(-0.000000, 0.000000)">
                    <polygon id="Fill-12" fill="#FFBFFF" points="0 26 23.1724138 26 23.1724138 0 0 0"></polygon>
                    <polygon id="Stroke-13" stroke="#000000" stroke-width="2" stroke-linecap="round" stroke-linejoin="round" points="0 0 23.1724138 0 23.1724138 26 0 26"></polygon>
                </g>
                <text id="O" font-family="BalsamiqSans-Regular, Balsamiq Sans" font-size="18" font-weight="normal" fill="#000000">
                    <tspan x="5.16958621" y="20.0357143">O</tspan>
                </text>
            </g>
        </g>
    </g>
</svg>