<?xml version="1.0" encoding="UTF-8"?>
<svg width="480px" height="242px" viewBox="0 0 480 242" version="1.1" xmlns="http://www.w3.org/2000/svg" xmlns:xlink="http://www.w3.org/1999/xlink">
    <title>Artboard</title>
    <g id="Artboard" stroke="none" stroke-width="1" fill="none" fill-rule="evenodd">
        <rect fill="#FFFFFF" x="0" y="0" width="480" height="242"></rect>
        <g id="Group-2" transform="translate(62.000000, 35.000000)">
            <g id="Group-7" transform="translate(178.500000, 28.000000) rotate(90.000000) translate(-178.500000, -28.000000) translate(152.000000, -108.000000)" stroke="#000000" stroke-width="3">
                <line x1="-45.9011957" y1="72.7290826" x2="99.6965309" y2="73.0153801" id="use2208" stroke-linecap="round" transform="translate(26.897668, 72.872231) rotate(-90.000000) translate(-26.897668, -72.872231) "></line>
                <path d="M33.6253631,134.456752 C33.6253631,138.079059 30.7082411,141.015518 27.109789,141.015518 C23.5113337,141.015518 20.5942117,138.079059 20.5942117,134.456752 C20.5942117,130.834445 23.5113337,127.897985 27.109789,127.897985 C30.7082411,127.897985 33.6253631,130.834445 33.6253631,134.456752 Z" id="path3355-copy" fill="#EAEAEA" stroke-linecap="round" stroke-linejoin="round" transform="translate(27.109787, 134.456752) rotate(-90.000000) translate(-27.109787, -134.456752) "></path>
                <line x1="-35.5551714" y1="222.308585" x2="63.6781302" y2="222.309094" id="path3349" stroke-linecap="round" transform="translate(14.061479, 222.308839) rotate(-90.000000) translate(-14.061479, -222.308839) "></line>
                <line x1="21.1801304" y1="190.959362" x2="57.7144765" y2="190.959362" id="use1318" stroke-linecap="square" transform="translate(39.447303, 190.959362) rotate(-90.000000) translate(-39.447303, -190.959362) "></line>
                <path d="M3.8783648,191.556352 C3.83805414,191.558132 15.9842601,189.136351 15.9842601,165.763971 C15.9842601,142.161501 3.87757354,139.971592 3.8783648,139.971592 C23.434745,142.335712 36.1712653,138.987645 49.6306738,165.763973 C39.5947035,189.439602 26.4329442,190.563381 3.8783648,191.556352 Z" id="path3353" fill="#EAEAEA" stroke-linejoin="round" transform="translate(26.754519, 165.763972) rotate(-90.000000) translate(-26.754519, -165.763972) "></path>
            </g>
            <g id="Group-7" transform="translate(179.000000, 145.000000) rotate(90.000000) translate(-179.000000, -145.000000) translate(152.500000, 8.500000)" stroke="#000000" stroke-width="3">
                <line x1="-46.4384506" y1="73.2663375" x2="100.233786" y2="73.552635" id="use2208" stroke-linecap="round" transform="translate(26.897668, 73.409486) rotate(-90.000000) translate(-26.897668, -73.409486) "></line>
                <path d="M33.6253631,135.531262 C33.6253631,139.153569 30.7082411,142.090028 27.109789,142.090028 C23.5113337,142.090028 20.5942117,139.153569 20.5942117,135.531262 C20.5942117,131.908955 23.5113337,128.972495 27.109789,128.972495 C30.7082411,128.972495 33.6253631,131.908955 33.6253631,135.531262 Z" id="path3355-copy" fill="#EAEAEA" stroke-linecap="round" stroke-linejoin="round" transform="translate(27.109787, 135.531261) rotate(-90.000000) translate(-27.109787, -135.531261) "></path>
                <line x1="-3.20543882" y1="191.033871" x2="33.3289073" y2="191.033871" id="path3349" stroke-linecap="square" transform="translate(15.061734, 191.033871) rotate(-90.000000) translate(-15.061734, -191.033871) "></line>
                <line x1="-9.88457571" y1="223.130866" x2="88.811471" y2="223.098578" id="use1318" stroke-linecap="round" transform="translate(39.463448, 223.114722) rotate(-90.000000) translate(-39.463448, -223.114722) "></line>
                <path d="M3.8783648,192.630862 C3.83805414,192.632642 15.9842601,190.210861 15.9842601,166.838481 C15.9842601,143.236011 3.87757354,141.046102 3.8783648,141.046102 C23.434745,143.410222 36.1712653,140.062155 49.6306738,166.838483 C39.5947035,190.514112 26.4329442,191.637891 3.8783648,192.630862 Z" id="path3353" fill="#EAEAEA" stroke-linejoin="round" transform="translate(26.754519, 166.838482) rotate(-90.000000) translate(-26.754519, -166.838482) "></path>
            </g>
            <line x1="105" y1="107.538462" x2="105.5" y2="135" id="Line" stroke="#000000" stroke-width="3" stroke-linejoin="round"></line>
            <line x1="104.375" y1="40.951087" x2="104.5" y2="65" id="Line" stroke="#000000" stroke-width="3" stroke-linecap="square" stroke-linejoin="round"></line>
            <line x1="246" y1="31.5384615" x2="246.5" y2="59" id="Line" stroke="#000000" stroke-width="3" stroke-linejoin="round"></line>
            <line x1="245" y1="115.538462" x2="245.5" y2="143" id="Line" stroke="#000000" stroke-width="3" stroke-linejoin="round"></line>
            <line x1="247.462963" y1="57.5416667" x2="103.537037" y2="108.458333" id="Line" stroke="#000000" stroke-width="3"></line>
            <line x1="104" y1="65" x2="246.462406" y2="117.459184" id="Line" stroke="#000000" stroke-width="3" stroke-linejoin="round"></line>
            <circle id="Oval" fill="#000000" cx="246.5" cy="27.5" r="5.5"></circle>
            <circle id="Oval" fill="#000000" cx="246.5" cy="145.5" r="5.5"></circle>
            <text id="N1" font-family="BalsamiqSans-Regular, Balsamiq Sans" font-size="14" font-weight="normal" fill="#000000">
                <tspan x="146" y="32">N1</tspan>
            </text>
            <text id="N2" font-family="BalsamiqSans-Regular, Balsamiq Sans" font-size="14" font-weight="normal" fill="#000000">
                <tspan x="144" y="151">N2</tspan>
            </text>
            <g id="Group">
                <g id="Group-3-Copy-3" transform="translate(0.000000, 2.000000)">
                    <polygon id="Fill-12" fill="#FFFFBF" points="0 24 24 24 24 0 0 0"></polygon>
                    <polygon id="Stroke-13" stroke="#000000" stroke-width="2" stroke-linecap="round" stroke-linejoin="round" points="0 0 24 0 24 24 0 24"></polygon>
                </g>
                <text id="S" font-family="BalsamiqSans-Regular, Balsamiq Sans" font-size="18" font-weight="normal" fill="#000000">
                    <tspan x="6.85714286" y="20">S</tspan>
                </text>
            </g>
            <g id="Group-Copy" transform="translate(0.000000, 145.000000)">
                <g id="Group-3-Copy-3" transform="translate(0.000000, 2.000000)">
                    <polygon id="Fill-12" fill="#FFFFBF" points="0 24 24 24 24 0 0 0"></polygon>
                    <polygon id="Stroke-13" stroke="#000000" stroke-width="2" stroke-linecap="round" stroke-linejoin="round" points="0 0 24 0 24 24 0 24"></polygon>
                </g>
                <text id="R" font-family="BalsamiqSans-Regular, Balsamiq Sans" font-size="18" font-weight="normal" fill="#000000">
                    <tspan x="5.85714286" y="20">R</tspan>
                </text>
            </g>
            <g id="Group-2-Copy" transform="translate(332.000000, 132.000000)">
                <g id="Group-3-Copy-3">
                    <polygon id="Fill-12" fill="#FFBFFF" points="0 26 23.1724138 26 23.1724138 0 0 0"></polygon>
                    <polygon id="Stroke-13" stroke="#000000" stroke-width="2" stroke-linecap="round" stroke-linejoin="round" points="0 0 23.1724138 0 23.1724138 26 0 26"></polygon>
                </g>
                <text id="Q" font-family="BalsamiqSans-Regular, Balsamiq Sans" font-size="18" font-weight="normal" fill="#000000">
                    <tspan x="5.02558621" y="20.0357143">Q</tspan>
                </text>
            </g>
            <g id="Group-2-Copy" transform="translate(332.000000, 13.000000)">
                <g id="Group-3-Copy-3">
                    <polygon id="Fill-12" fill="#FFBFFF" points="0 26 23.1724138 26 23.1724138 0 0 0"></polygon>
                    <polygon id="Stroke-13" stroke="#000000" stroke-width="2" stroke-linecap="round" stroke-linejoin="round" points="0 0 23.1724138 0 23.1724138 26 0 26"></polygon>
                </g>
                <text id="Q" font-family="BalsamiqSans-Regular, Balsamiq Sans" font-size="18" font-weight="normal" fill="#000000">
                    <tspan x="5.02558621" y="20.0357143">Q</tspan>
                </text>
            </g>
            <line x1="340" y1="17" x2="346" y2="17" id="Line-2" stroke="#000000" stroke-width="2" stroke-linecap="round"></line>
        </g>
    </g>
</svg>