<?xml version="1.0" encoding="UTF-8"?>
<svg width="269px" height="367px" viewBox="0 0 269 367" version="1.1" xmlns="http://www.w3.org/2000/svg" xmlns:xlink="http://www.w3.org/1999/xlink">
    <title>Artboard</title>
    <g id="Artboard" stroke="none" stroke-width="1" fill="none" fill-rule="evenodd">
        <rect fill="#FFFFFF" x="0" y="0" width="269" height="367"></rect>
        <g id="Group" transform="translate(130.500000, 178.000000) rotate(-90.000000) translate(-130.500000, -178.000000) translate(-16.000000, 93.000000)">
            <rect id="Rectangle" stroke="#979797" fill="#D8D8D8" x="0" y="1" width="24" height="169"></rect>
            <rect id="Rectangle" stroke="#979797" fill="#D8D8D8" x="0" y="1" width="24" height="169"></rect>
            <rect id="Rectangle" stroke="#979797" fill="#D8D8D8" x="132" y="1" width="24" height="169"></rect>
            <rect id="Rectangle" stroke="#979797" fill="#D8D8D8" x="88" y="1" width="24" height="169"></rect>
            <rect id="Rectangle" stroke="#979797" fill="#D8D8D8" x="44" y="1" width="24" height="169"></rect>
            <rect id="rect2493" stroke="#6DD400" stroke-width="1.00000924" fill-opacity="0.423111069" fill="#6DD400" fill-rule="nonzero" transform="translate(188.500000, 85.000000) rotate(89.753630) translate(-188.500000, -85.000000) " x="104" y="73" width="169" height="24"></rect>
            <path id="Line" d="M283.5,108.5 L292.5,113 L283.5,117.5 L283.5,113.5 L220.5,113.5 L220.5,112.5 L283.5,112.5 L283.5,108.5 Z" fill="#979797" fill-rule="nonzero"></path>
            <path id="Line" d="M229.5,55.5 L229.5,59.5 L292.5,59.5 L292.5,60.5 L229.5,60.5 L229.5,64.5 L220.5,60 L229.5,55.5 Z" fill="#979797" fill-rule="nonzero"></path>
        </g>
    </g>
</svg>