<svg version="1.1" xmlns="http://www.w3.org/2000/svg" xmlns:xlink="http://www.w3.org/1999/xlink" width="1920" height="961"><defs/><g><rect fill="#FFFFFF" stroke="none" x="0" y="0" width="617" height="260"/><path fill="white" stroke="none" paint-order="stroke fill markers" d=" M 0 0 L 617.8896484375 0 L 617.8896484375 260 L 0 260 L 0 0 Z"/><path fill="none" stroke="rgb(0,0,0)" paint-order="fill stroke markers" d=" M 80 50 L 490 50 L 490 210 L 80 210 L 80 50 Z" stroke-opacity="1" stroke-miterlimit="10" stroke-width="2" stroke-dasharray="5,5"/><path fill="none" stroke="none"/><text fill="black" stroke="none" font-family="Raleway" font-size="14px" font-style="normal" font-weight="normal" text-decoration="normal" x="60" y="85" text-anchor="start" dominant-baseline="alphabetic">a</text><path fill="none" stroke="none"/><text fill="black" stroke="none" font-family="Raleway" font-size="14px" font-style="normal" font-weight="normal" text-decoration="normal" x="60" y="185" text-anchor="start" dominant-baseline="alphabetic">b</text><path fill="none" stroke="none"/><text fill="black" stroke="none" font-family="Raleway" font-size="14px" font-style="normal" font-weight="normal" text-decoration="normal" x="540" y="135" text-anchor="start" dominant-baseline="alphabetic">out</text><path fill="white" stroke="black" paint-order="fill stroke markers" d=" M 300.5 70.5 L 310.5 70.5 L 310.5 70.5 A 20 20 0 0 1 310.5 110.5 L 300.5 110.5 L 300.5 70.5 Z" stroke-miterlimit="10" stroke-width="3"/><path fill="white" stroke="black" paint-order="fill stroke markers" d=" M 300.5 150.5 L 310.5 150.5 L 310.5 150.5 A 20 20 0 0 1 310.5 190.5 L 300.5 190.5 L 300.5 150.5 Z" stroke-miterlimit="10" stroke-width="3"/><path fill="white" stroke="black" paint-order="fill stroke markers" d=" M 420 110 C 430 110 445 120 450 130 C 445 140 430 150 420 150 C 430 130 430 130 420 110 Z" stroke-miterlimit="10" stroke-width="3"/><path fill="white" stroke="black" paint-order="fill stroke markers" d=" M 210.5 90.5 L 230.5 100.5 L 210.5 110.5 Z" stroke-miterlimit="10" stroke-width="3"/><path fill="none" stroke="black" paint-order="fill stroke markers" d=" M 240 100 A 5 5 0 1 1 239.9999975000002 99.99500000083333" stroke-miterlimit="10" stroke-width="3"/><path fill="white" stroke="black" paint-order="fill stroke markers" d=" M 210.5 150.5 L 230.5 160.5 L 210.5 170.5 Z" stroke-miterlimit="10" stroke-width="3"/><path fill="none" stroke="black" paint-order="fill stroke markers" d=" M 240 160 A 5 5 0 1 1 239.9999975000002 159.99500000083333" stroke-miterlimit="10" stroke-width="3"/><path fill="white" stroke="blue" paint-order="fill stroke markers" d=" M 500.5 120.5 L 520.5 120.5 L 520.5 140.5 L 500.5 140.5 L 500.5 120.5 Z" stroke-miterlimit="10" stroke-width="3"/><path fill="none" stroke="none"/><text fill="green" stroke="none" font-family="Raleway" font-size="20px" font-style="normal" font-weight="normal" text-decoration="normal" x="510" y="135" text-anchor="middle" dominant-baseline="alphabetic">1</text><path fill="white" stroke="black" paint-order="fill stroke markers" d=" M 90.5 70.5 L 110.5 70.5 L 110.5 90.5 L 90.5 90.5 L 90.5 70.5 Z" stroke-miterlimit="10" stroke-width="3"/><path fill="none" stroke="none"/><path fill="none" stroke="none"/><text fill="green" stroke="none" font-family="Raleway" font-size="20px" font-style="normal" font-weight="normal" text-decoration="normal" x="100" y="85" text-anchor="middle" dominant-baseline="alphabetic">0</text><path fill="white" stroke="black" paint-order="fill stroke markers" d=" M 90.5 170.5 L 110.5 170.5 L 110.5 190.5 L 90.5 190.5 L 90.5 170.5 Z" stroke-miterlimit="10" stroke-width="3"/><path fill="none" stroke="none"/><path fill="none" stroke="none"/><text fill="green" stroke="none" font-family="Raleway" font-size="20px" font-style="normal" font-weight="normal" text-decoration="normal" x="100" y="185" text-anchor="middle" dominant-baseline="alphabetic">1</text><path fill="none" stroke="green" paint-order="fill stroke markers" d=" M 110 80.5 L 120 80.5" stroke-linecap="round" stroke-miterlimit="10" stroke-width="3"/><path fill="none" stroke="lightgreen" paint-order="fill stroke markers" d=" M 110 180.5 L 160 180.5" stroke-linecap="round" stroke-miterlimit="10" stroke-width="3"/><path fill="none" stroke="green" paint-order="fill stroke markers" d=" M 300 80.5 L 120 80.5" stroke-linecap="round" stroke-miterlimit="10" stroke-width="3"/><path fill="none" stroke="green" paint-order="fill stroke markers" d=" M 300 100.5 L 240 100.5" stroke-linecap="round" stroke-miterlimit="10" stroke-width="3"/><path fill="none" stroke="green" paint-order="fill stroke markers" d=" M 330 90.5 L 390 90.5" stroke-linecap="round" stroke-miterlimit="10" stroke-width="3"/><path fill="none" stroke="lightgreen" paint-order="fill stroke markers" d=" M 300 160.5 L 240 160.5" stroke-linecap="round" stroke-miterlimit="10" stroke-width="3"/><path fill="none" stroke="lightgreen" paint-order="fill stroke markers" d=" M 300 180.5 L 160 180.5" stroke-linecap="round" stroke-miterlimit="10" stroke-width="3"/><path fill="none" stroke="lightgreen" paint-order="fill stroke markers" d=" M 330 170.5 L 390 170.5" stroke-linecap="round" stroke-miterlimit="10" stroke-width="3"/><path fill="none" stroke="lightgreen" paint-order="fill stroke markers" d=" M 210 100.5 L 160 100.5" stroke-linecap="round" stroke-miterlimit="10" stroke-width="3"/><path fill="none" stroke="green" paint-order="fill stroke markers" d=" M 210 160.5 L 120 160.5" stroke-linecap="round" stroke-miterlimit="10" stroke-width="3"/><path fill="none" stroke="green" paint-order="fill stroke markers" d=" M 420 120.5 L 390 120.5" stroke-linecap="round" stroke-miterlimit="10" stroke-width="3"/><path fill="none" stroke="lightgreen" paint-order="fill stroke markers" d=" M 420 140.5 L 390 140.5" stroke-linecap="round" stroke-miterlimit="10" stroke-width="3"/><path fill="none" stroke="lightgreen" paint-order="fill stroke markers" d=" M 450 130.5 L 500 130.5" stroke-linecap="round" stroke-miterlimit="10" stroke-width="3"/><path fill="none" stroke="green" paint-order="fill stroke markers" d=" M 120.5 160 L 120.5 80" stroke-linecap="round" stroke-miterlimit="10" stroke-width="3"/><path fill="none" stroke="lightgreen" paint-order="fill stroke markers" d=" M 160.5 100 L 160.5 180" stroke-linecap="round" stroke-miterlimit="10" stroke-width="3"/><path fill="none" stroke="green" paint-order="fill stroke markers" d=" M 390.5 90 L 390.5 120" stroke-linecap="round" stroke-miterlimit="10" stroke-width="3"/><path fill="none" stroke="lightgreen" paint-order="fill stroke markers" d=" M 390.5 170 L 390.5 140" stroke-linecap="round" stroke-miterlimit="10" stroke-width="3"/><path fill="green" stroke="none" paint-order="stroke fill markers" d=" M 113 80 A 3 3 0 1 1 112.99999850000013 79.9970000005 Z"/><path fill="green" stroke="none" paint-order="stroke fill markers" d=" M 113 180 A 3 3 0 1 1 112.99999850000013 179.9970000005 Z"/><path fill="green" stroke="none" paint-order="stroke fill markers" d=" M 303 80 A 3 3 0 1 1 302.9999985000001 79.9970000005 Z"/><path fill="green" stroke="none" paint-order="stroke fill markers" d=" M 303 100 A 3 3 0 1 1 302.9999985000001 99.9970000005 Z"/><path fill="green" stroke="none" paint-order="stroke fill markers" d=" M 333 90 A 3 3 0 1 1 332.9999985000001 89.9970000005 Z"/><path fill="green" stroke="none" paint-order="stroke fill markers" d=" M 303 160 A 3 3 0 1 1 302.9999985000001 159.9970000005 Z"/><path fill="green" stroke="none" paint-order="stroke fill markers" d=" M 303 180 A 3 3 0 1 1 302.9999985000001 179.9970000005 Z"/><path fill="green" stroke="none" paint-order="stroke fill markers" d=" M 333 170 A 3 3 0 1 1 332.9999985000001 169.9970000005 Z"/><path fill="green" stroke="none" paint-order="stroke fill markers" d=" M 213 100 A 3 3 0 1 1 212.99999850000012 99.9970000005 Z"/><path fill="green" stroke="none" paint-order="stroke fill markers" d=" M 243 100 A 3 3 0 1 1 242.99999850000012 99.9970000005 Z"/><path fill="green" stroke="none" paint-order="stroke fill markers" d=" M 213 160 A 3 3 0 1 1 212.99999850000012 159.9970000005 Z"/><path fill="green" stroke="none" paint-order="stroke fill markers" d=" M 243 160 A 3 3 0 1 1 242.99999850000012 159.9970000005 Z"/><path fill="green" stroke="none" paint-order="stroke fill markers" d=" M 423 120 A 3 3 0 1 1 422.9999985000001 119.9970000005 Z"/><path fill="green" stroke="none" paint-order="stroke fill markers" d=" M 423 140 A 3 3 0 1 1 422.9999985000001 139.9970000005 Z"/><path fill="green" stroke="none" paint-order="stroke fill markers" d=" M 453 130 A 3 3 0 1 1 452.9999985000001 129.9970000005 Z"/><path fill="green" stroke="none" paint-order="stroke fill markers" d=" M 503 130 A 3 3 0 1 1 502.9999985000001 129.9970000005 Z"/><path fill="green" stroke="none" paint-order="stroke fill markers" d=" M 123 160 A 3 3 0 1 1 122.99999850000013 159.9970000005 Z"/><path fill="lightgreen" stroke="none" paint-order="stroke fill markers" d=" M 163 100 A 3 3 0 1 1 162.99999850000012 99.9970000005 Z"/><path fill="lightgreen" stroke="none" paint-order="stroke fill markers" d=" M 163 180 A 3 3 0 1 1 162.99999850000012 179.9970000005 Z"/><path fill="green" stroke="none" paint-order="stroke fill markers" d=" M 123 80 A 3 3 0 1 1 122.99999850000013 79.9970000005 Z"/><path fill="green" stroke="none" paint-order="stroke fill markers" d=" M 393 90 A 3 3 0 1 1 392.9999985000001 89.9970000005 Z"/><path fill="green" stroke="none" paint-order="stroke fill markers" d=" M 393 120 A 3 3 0 1 1 392.9999985000001 119.9970000005 Z"/><path fill="lightgreen" stroke="none" paint-order="stroke fill markers" d=" M 393 170 A 3 3 0 1 1 392.9999985000001 169.9970000005 Z"/><path fill="lightgreen" stroke="none" paint-order="stroke fill markers" d=" M 393 140 A 3 3 0 1 1 392.9999985000001 139.9970000005 Z"/></g></svg>